<svg width="689" height="875" viewBox="0 0 689 875" fill="none" xmlns="http://www.w3.org/2000/svg">
<g clip-path="url(#clip0)">
<path d="M242.964 544.885C216.875 589.348 171.201 643.044 116.253 656.173C61.171 668.806 -2.69029 640.739 -40.4819 592.93C-78.5879 544.94 -90.3098 477.389 -73.4088 423.429C-56.0119 369.337 -9.99206 328.836 15.0381 269.509C40.0682 210.182 44.1086 132.03 79.0334 105.663C113.958 79.2964 179.586 105.03 248.507 119.251C316.932 133.605 387.841 136.397 439.242 171.523C490.33 206.468 521.415 273.88 491.659 322.514C462.085 370.833 371.67 400.375 323.524 432.942C275.064 465.327 269.054 500.423 242.964 544.885Z" fill="url(#paint0_linear)"/>
</g>
<defs>
<linearGradient id="paint0_linear" x1="389.726" y1="499.119" x2="-17.6269" y2="263.933" gradientUnits="userSpaceOnUse">
<stop stop-color="#FFD900"/>
<stop offset="1" stop-color="#09864C"/>
</linearGradient>
<clipPath id="clip0">
<rect width="726.064" height="726.064" fill="white" transform="translate(688.822 246.032) rotate(120)"/>
</clipPath>
</defs>
</svg>
