<svg width="653" height="650" viewBox="0 0 653 650" fill="none" xmlns="http://www.w3.org/2000/svg">
<path d="M573.947 462.576C585.079 524.892 648.08 579.339 637.281 594.273C626.482 609.206 541.88 583.821 489.178 585.255C436.477 586.689 416.077 614.539 383.552 629.566C350.222 644.597 305.167 646.4 287.771 624.346C270.775 601.888 282.24 554.764 234.083 490.194C185.925 425.623 78.5451 343.203 73.4811 288.505C68.0131 233.407 164.457 205.632 247.673 189.582C330.486 173.131 400.072 168.405 464.505 181.807C528.538 195.613 587.014 227.146 595.684 278.207C604.353 329.268 562.815 400.26 573.947 462.576Z" fill="url(#paint0_linear)"/>
<defs>
<linearGradient id="paint0_linear" x1="560.915" y1="222.512" x2="224.439" y2="561.902" gradientUnits="userSpaceOnUse">
<stop stop-color="#FFD900"/>
<stop offset="1" stop-color="#09864C"/>
</linearGradient>
</defs>
</svg>
