<?xml version="1.0" encoding="utf-8"?>
<!-- Generator: Adobe Illustrator 25.0.1, SVG Export Plug-In . SVG Version: 6.00 Build 0)  -->
<svg version="1.1" id="Layer_1" xmlns="http://www.w3.org/2000/svg" xmlns:xlink="http://www.w3.org/1999/xlink" x="0px" y="0px"
	 viewBox="0 0 95 25" style="enable-background:new 0 0 95 25;" xml:space="preserve">
<style type="text/css">
	.st0{fill-rule:evenodd;clip-rule:evenodd;fill:#FFD700;}
	.st1{fill:#323232;}
</style>
<g transform="translate(0 3.9999999999999982) scale(0.2800001)">
	<g>
		<path class="st0" d="M325.5,41.2l-4.9-0.7l4.3-1.9l-5.9,0.7l1.4-2.2l-2.6,1.7c-1.7-0.9-3.7-2.5-6.3-1.4c-0.8,0.3-1.5,0.8-2.2,1.3
			v-0.4c0-0.7,0-1.4-0.1-2.1c-0.3-5.5-2.3-10.6-4.9-14.8c-0.4-0.5-0.7-1.1-1-1.6c1.3-0.7,2.5-1.7,3.5-3.2c2.2-3.5,0.6-7.9,0.6-7.9
			l1.8-4.4l-2.6,2.3l-0.8-4l-1,4l-2.1-2.5l1.1,3.9l-2.7,0.6l3.3,1.2c0,0,0.8,3.3-0.6,5.1c-0.7,0.9-1.6,1.6-2.5,2
			c-0.4-0.5-0.8-0.9-1.1-1.4c-0.8-0.9-1.7-1.7-2.5-2.6c-0.9-0.9-1.5-1.4-2.2-2c-0.3-0.3-0.7-0.6-1-0.9L294,9.6l-0.3-0.2
			c-0.2-0.2-0.4-0.3-0.6-0.5c-0.8-0.7-1.5-1.3-2.2-2c-0.4-0.3-0.7-0.7-1.1-1c-0.4-0.3-4.1-2.9-8.3-3.4c-1.5-0.2-2.6-0.2-4.4-0.1
			c-5.8,0.6-7.2,1.8-7.2,1.8c-0.4,0.2-0.7,0.5-0.9,0.9c-0.6,1-0.4,1.9,0.6,2.9c0,0,0.9,0.9,2,1.7c4.7,3.4,5.8,4.1,8,5
			c1.2,0.5,3.2,0.7,3.5,0.8s0.6,0.2,0.9,0.3c0.3,0.1,0.6,0.2,1,0.4c0.3,0.1,0.7,0.3,1,0.4c0.3,0.2,0.6,0.4,0.9,0.6
			c0.2,0.1,0.3,0.2,0.5,0.3l0.1,0.1l0.1,0.1c0.3,0.3,0.6,0.6,1,0.9c0.6,0.6,1.4,1.3,1.8,1.9c0.4,0.6,0.9,1.2,1.3,1.8
			c0.2,0.3,0.4,0.7,0.6,1c-1,1.1-2.8,2.7-5.1,3c-2.2,0.3-4.8-2-4.8-2l0.6-3.4l-1.8,2.1l-2.9-2.8l1.2,3l-4-1.1l3.1,2.6l-3.3,1.2
			l4.7,0.5c0,0,3,3.5,7.1,3.3c3-0.2,5.3-1.9,6.7-3.3c0,0.1,0.1,0.2,0.1,0.4c1.2,3.2,1.9,6.7,2.3,10.4c0,0.5,0.1,0.9,0.1,1.4l0.1,0.7
			c0-0.1,0,0.4,0-0.3v0.1v0.1v0.2v0.4c0,0.6,0,1.2,0,1.8v0.9v0.6c0,0.1,0,0.3,0,0.4c-1.5-0.7-3.1-1.3-4.7-1.4
			c-2.9-0.1-5.6,2.6-6.9,4l-3-0.7l2.1,1.6l-5.8,1.4l4.7,0.3l-4.4,2.3l5.6-1l-3.3,2.6l5.9-2.1c0,0,3.6-4.9,5.7-4.6
			c0.7,0.1,2.2,0.9,3.7,1.8c-0.1,0.3-0.1,0.6-0.2,0.8c-0.7,4-2.2,8.2-4.9,11.8c-2.7,3.5-6.6,6.2-10.7,7.9c-4.1,1.8-8.6,2.6-13,2.4
			c-4.3-0.2-8.5-1.2-12.2-3c-3.7-1.8-6.8-4.1-9.2-6.7c-2.4-2.6-4.3-5.4-5.5-8c-0.2-0.3-0.3-0.7-0.5-1c-0.1-0.3-0.2-0.7-0.4-1
			c-0.2-0.6-0.5-1.3-0.7-1.8c-0.4-1.2-0.6-2.3-0.9-3.4c-0.2-1-0.3-2-0.4-2.8s-0.1-1.5-0.1-2.1c0-1.1-0.1-1.7-0.1-1.7V39l0,0
			c0-0.3-0.3-0.5-0.6-0.5c-0.3,0-0.5,0.3-0.5,0.6c0,0,0,0.6,0.1,1.8c0.1,0.6,0,1.3,0.2,2.1c0.1,0.8,0.3,1.8,0.4,2.9
			c0.3,1,0.5,2.2,0.9,3.5c0.2,0.6,0.4,1.3,0.7,1.9c0.1,0.3,0.2,0.7,0.4,1c0.2,0.3,0.3,0.7,0.5,1c1.2,2.8,3,5.7,5.5,8.5
			c2.5,2.8,5.6,5.5,9.4,7.6c3.8,2.1,8.2,3.7,13,4.2c4.7,0.5,9.8,0.2,14.7-1.3c4.9-1.5,9.5-4.2,13.7-7.5c4.2-3.4,8-7.6,10.6-12.6
			c0.7-1.2,1.2-2.6,1.7-3.9c0.4-0.9,0.6-2,0.9-3c1.3-1.7,3-3.8,3.8-4.3c1.9-1,5.4,2.4,5.4,2.4l6.3-0.1l-4-1.3L325.5,41.2z"/>
	</g>
</g>
<path class="st1" d="M11.2,21.2l-3.5,0.2V6.1H4l0.3-2.8h10.6l-0.3,2.8h-3.4C11.2,6.1,11.2,21.2,11.2,21.2z M19.5,21.7
	c-0.9,0-1.6-0.3-2.2-0.9s-0.8-1.4-0.8-2.5l0,0V8.1l3.4-0.3V17c0,0.6,0.1,1.1,0.3,1.4s0.5,0.4,1,0.4l0,0c0.3,0,0.7-0.1,1.1-0.3
	c0.4-0.2,0.7-0.4,1-0.8l0,0V8.2l3.4-0.3v13.4l-3.5,0.2v-1.7c-0.6,0.6-1.2,1.1-1.8,1.4C20.7,21.6,20.1,21.7,19.5,21.7L19.5,21.7z
	 M41.3,20.9l-3.6,0.8l-3.1-8.4l-1.4,2.4v5.7h-3.5V3.6l3.5-0.3v7.9l4.3-7.9h3.7l-3.9,7.4L41.3,20.9z M47.3,21.7
	c-1.6,0-2.8-0.6-3.7-1.9c-0.8-1.3-1.3-3-1.3-5.1l0,0c0-2.1,0.4-3.9,1.3-5.1c0.9-1.3,2.1-1.9,3.8-1.9l0,0c1.6,0,2.8,0.6,3.6,1.9
	s1.2,3,1.2,5.1l0,0c0,0.1,0,0.2-0.1,0.3C52,15.1,52,15.1,52,15.1l0,0h-6.4c0,1,0.1,2,0.4,2.9c0.3,0.9,0.7,1.3,1.2,1.3l0,0
	c0.6,0,1.1-0.4,1.4-1.1c0.3-0.7,0.5-1.1,0.5-1.1l0,0l2.5,1c-0.3,1.2-0.9,2.1-1.6,2.7C49.5,21.4,48.5,21.7,47.3,21.7L47.3,21.7z
	 M45.7,13.2H49c0-1-0.1-1.7-0.4-2.3c-0.3-0.6-0.7-0.8-1.2-0.8l0,0c-0.3,0-0.5,0.1-0.8,0.4c-0.3,0.3-0.5,0.6-0.6,1.1
	C45.8,12.1,45.7,12.6,45.7,13.2L45.7,13.2z M66.1,20.9l-3.6,0.8l-3.1-8.4L58,15.6v5.7h-3.5V3.6L58,3.3v7.9l4.3-7.9h3.8l-3.9,7.4
	L66.1,20.9z M72.1,21.7c-1.6,0-2.8-0.6-3.7-1.9c-0.8-1.3-1.3-3-1.3-5.1l0,0c0-2.1,0.4-3.9,1.3-5.1c0.9-1.3,2.1-1.9,3.8-1.9l0,0
	c1.6,0,2.8,0.6,3.6,1.9c0.8,1.3,1.2,3,1.2,5.1l0,0c0,0.1,0,0.2-0.1,0.3c0,0.1-0.1,0.1-0.1,0.1l0,0h-6.4c0,1,0.1,2,0.4,2.9
	s0.7,1.3,1.2,1.3l0,0c0.6,0,1.1-0.4,1.4-1.1s0.5-1.1,0.5-1.1l0,0l2.5,1c-0.3,1.2-0.9,2.1-1.6,2.7C74.3,21.4,73.3,21.7,72.1,21.7
	L72.1,21.7z M70.6,13.2h3.2c0-1-0.1-1.7-0.4-2.3s-0.7-0.8-1.2-0.8l0,0c-0.3,0-0.5,0.1-0.8,0.4c-0.3,0.3-0.5,0.6-0.6,1.1
	C70.6,12.1,70.6,12.6,70.6,13.2L70.6,13.2z"/>
</svg>
