<?xml version="1.0" encoding="utf-8"?>
<!-- Generator: Adobe Illustrator 25.0.1, SVG Export Plug-In . SVG Version: 6.00 Build 0)  -->
<svg version="1.1" id="Layer_1" xmlns="http://www.w3.org/2000/svg" xmlns:xlink="http://www.w3.org/1999/xlink" x="0px" y="0px"
	 viewBox="0 0 42 34" style="enable-background:new 0 0 42 34;" xml:space="preserve">
<style type="text/css">
	.st0{fill-rule:evenodd;clip-rule:evenodd;fill:#FFD700;}
</style>
<g transform="translate(0 3.9999999999999982) scale(0.2800001)">
	<g>
		<path class="st0" d="M149.6,51.6l-8.2-1.2l7.2-3.2l-9.9,1.2l2.3-3.7l-4.3,2.8c-2.8-1.5-6.2-4.2-10.5-2.3c-1.3,0.5-2.5,1.3-3.7,2.2
			v-0.7c0-1.2,0-2.3-0.2-3.5c-0.5-9.2-3.8-17.7-8.2-24.8c-0.7-0.8-1.2-1.8-1.7-2.7c2.2-1.2,4.2-2.8,5.9-5.4c3.7-5.9,1-13.2,1-13.2
			l3-7.4L118-6.2l-1.3-6.7L115-6.2l-3.5-4.2l1.8,6.5l-4.5,1l5.5,2c0,0,1.3,5.5-1,8.5c-1.2,1.5-2.7,2.7-4.2,3.3
			c-0.7-0.8-1.3-1.5-1.8-2.3c-1.3-1.5-2.8-2.8-4.2-4.3c-1.5-1.5-2.5-2.3-3.7-3.3c-0.5-0.5-1.2-1-1.7-1.5l-0.8-0.7l-0.5-0.4
			c-0.3-0.3-0.7-0.5-1-0.8c-1.3-1.2-2.5-2.2-3.7-3.3c-0.7-0.5-1.2-1.2-1.8-1.7C89.2-7.9,83-12.3,76-13.1c-2.5-0.3-4.3-0.3-7.4-0.2
			c-9.7,1-12,3-12,3c-0.7,0.3-1.2,0.8-1.5,1.5c-1,1.7-0.7,3.2,1,4.9c0,0,1.5,1.5,3.3,2.8c7.9,5.7,9.7,6.9,13.4,8.4
			c2,0.8,5.4,1.2,5.9,1.3c0.5,0.2,1,0.3,1.5,0.5s1,0.3,1.7,0.7c0.5,0.2,1.2,0.5,1.7,0.7c0.5,0.3,1,0.7,1.5,1
			c0.3,0.2,0.5,0.3,0.8,0.5l0.2,0.2l0.2,0.2c0.5,0.5,1,1,1.7,1.5c1,1,2.3,2.2,3,3.2c0.7,1,1.5,2,2.2,3c0.3,0.5,0.7,1.2,1,1.7
			c-1.7,1.8-4.7,4.5-8.5,5c-3.7,0.5-8-3.3-8-3.3l1-5.7l-3,3.5l-4.9-4.7l2,5l-6.7-1.8l5.2,4.3l-5.5,2l7.9,0.8c0,0,5,5.9,11.9,5.5
			c5-0.3,8.9-3.2,11.2-5.5c0,0.2,0.2,0.3,0.2,0.7c2,5.4,3.2,11.2,3.8,17.4c0,0.8,0.2,1.5,0.2,2.3l0.2,1.2c0-0.2,0,0.7,0-0.5v0.2v0.2
			v0.3v0.7c0,1,0,2,0,3v1.5v1c0,0.2,0,0.5,0,0.7c-2.5-1.2-5.2-2.2-7.9-2.3c-4.9-0.2-9.4,4.3-11.5,6.7l-5-1.2l3.5,2.7l-9.7,2.3
			l7.9,0.5l-7.4,3.8l9.4-1.7L75,70.7l9.9-3.5c0,0,6-8.2,9.5-7.7c1.2,0.2,3.7,1.5,6.2,3c-0.2,0.5-0.2,1-0.3,1.3
			c-1.2,6.7-3.7,13.7-8.2,19.7c-4.5,5.9-11,10.4-17.9,13.2c-6.9,3-14.4,4.3-21.7,4c-7.2-0.3-14.2-2-20.4-5s-11.4-6.9-15.4-11.2
			s-7.2-9-9.2-13.4c-0.3-0.5-0.5-1.2-0.8-1.7c-0.2-0.5-0.3-1.2-0.7-1.7c-0.3-1-0.8-2.2-1.2-3c-0.7-2-1-3.8-1.5-5.7
			c-0.3-1.7-0.5-3.3-0.7-4.7c-0.2-1.3-0.2-2.5-0.2-3.5C2.4,49,2.2,48,2.2,48v-0.2l0,0c0-0.5-0.5-0.8-1-0.8s-0.8,0.5-0.8,1
			c0,0,0,1,0.2,3c0.2,1,0,2.2,0.3,3.5c0.2,1.3,0.5,3,0.7,4.9c0.5,1.7,0.8,3.7,1.5,5.9c0.3,1,0.7,2.2,1.2,3.2C4.5,69,4.6,69.7,5,70.2
			c0.3,0.5,0.5,1.2,0.8,1.7c2,4.7,5,9.5,9.2,14.2c4.2,4.7,9.4,9.2,15.7,12.7c6.4,3.5,13.7,6.2,21.7,7c7.9,0.8,16.4,0.3,24.6-2.2
			c8.2-2.5,15.9-7,22.9-12.5c7-5.7,13.4-12.7,17.7-21.1c1.2-2,2-4.3,2.8-6.5c0.7-1.5,1-3.3,1.5-5c2.2-2.8,5-6.4,6.4-7.2
			c3.2-1.7,9,4,9,4l10.5-0.2l-6.7-2.2L149.6,51.6z"/>
	</g>
</g>
</svg>
