<svg height="100%" width="100%" id="svg" viewBox="0 0 1440 400" xmlns="http://www.w3.org/2000/svg" class="transition duration-300 ease-in-out delay-150"><defs><linearGradient id="gradient"><stop offset="5%" stop-color="#09864c44"></stop><stop offset="95%" stop-color="#ffd90044"></stop></linearGradient></defs><path d="M 0,400 C 0,400 0,80 0,80 C 77.72248803827753,82.96650717703349 155.44497607655506,85.933014354067 242,91 C 328.55502392344494,96.066985645933 423.9425837320574,103.23444976076556 537,97 C 650.0574162679426,90.76555023923444 780.7846889952153,71.12918660287082 880,62 C 979.2153110047847,52.87081339712919 1046.9186602870814,54.248803827751196 1135,59 C 1223.0813397129186,63.751196172248804 1331.5406698564593,71.8755980861244 1440,80 C 1440,80 1440,400 1440,400 Z" stroke="none" stroke-width="0" fill="url(#gradient)" class="transition-all duration-300 ease-in-out delay-150"></path><defs><linearGradient id="gradient"><stop offset="5%" stop-color="#09864c66"></stop><stop offset="95%" stop-color="#ffd90066"></stop></linearGradient></defs><path d="M 0,400 C 0,400 0,160 0,160 C 86.24880382775123,152.89952153110048 172.49760765550246,145.79904306220095 269,150 C 365.50239234449754,154.20095693779905 472.2583732057416,169.70334928229667 576,171 C 679.7416267942584,172.29665071770333 780.4688995215313,159.38755980861245 864,159 C 947.5311004784687,158.61244019138755 1013.8660287081341,170.74641148325358 1107,173 C 1200.133971291866,175.25358851674642 1320.066985645933,167.6267942583732 1440,160 C 1440,160 1440,400 1440,400 Z" stroke="none" stroke-width="0" fill="url(#gradient)" class="transition-all duration-300 ease-in-out delay-150"></path><defs><linearGradient id="gradient"><stop offset="5%" stop-color="#09864c88"></stop><stop offset="95%" stop-color="#ffd90088"></stop></linearGradient></defs><path d="M 0,400 C 0,400 0,240 0,240 C 92.20095693779902,228.63157894736844 184.40191387559804,217.26315789473685 276,225 C 367.59808612440196,232.73684210526315 458.5933014354067,259.57894736842104 546,267 C 633.4066985645933,274.42105263157896 717.224880382775,262.42105263157896 829,248 C 940.775119617225,233.578947368421 1080.507177033493,216.73684210526318 1187,215 C 1293.492822966507,213.26315789473682 1366.7464114832535,226.6315789473684 1440,240 C 1440,240 1440,400 1440,400 Z" stroke="none" stroke-width="0" fill="url(#gradient)" class="transition-all duration-300 ease-in-out delay-150"></path><defs><linearGradient id="gradient"><stop offset="5%" stop-color="#09864cff"></stop><stop offset="95%" stop-color="#ffd900ff"></stop></linearGradient></defs><path d="M 0,400 C 0,400 0,320 0,320 C 106.38277511961724,337.67464114832535 212.76555023923447,355.34928229665076 317,349 C 421.23444976076553,342.65071770334924 523.3205741626795,312.2775119617225 616,304 C 708.6794258373205,295.7224880382775 791.9521531100477,309.5406698564593 871,319 C 950.0478468899523,328.4593301435407 1024.8708133971293,333.55980861244024 1119,333 C 1213.1291866028707,332.44019138755976 1326.5645933014353,326.22009569377985 1440,320 C 1440,320 1440,400 1440,400 Z" stroke="none" stroke-width="0" fill="url(#gradient)" class="transition-all duration-300 ease-in-out delay-150"></path></svg>